{"title":"Dylan Dog Dead Of Night *2011* [DVDRip.XviD-miguel] [ENG]","uid":6477272,"size":1474015692,"categoryP":"video","categoryS":"movies","magnet":"?xt=urn:btih:26535685436ccad78a7277d757c51298d7a433f6&amp;dn=Dylan+Dog+Dead+Of+Night+%2A2011%2A+%5BDVDRip.XviD-miguel%5D+%5BENG%5D&amp;tr=udp%3A%2F%2Ftracker.openbittorrent.com%3A80&amp;tr=udp%3A%2F%2Fopen.demonii.com%3A1337&amp;tr=udp%3A%2F%2Ftracker.coppersurfer.tk%3A6969&amp;tr=udp%3A%2F%2Fexodus.desync.com%3A6969","seeders":1,"leechers":0,"uploader":"miguel1983","files":-1,"time":1308352992,"description":" &lt;a href=&quot;http://img842.imageshack.us/img842/5182/1842561.jpg&quot; rel=&quot;nofollow&quot; target=&quot;_NEW&quot;&gt;http://img842.imageshack.us/img842/5182/1842561.jpg&lt;/a&gt;\n\nCountry.......: USA\nGenre.........: Horror, Thriller, Comedy\nDate release..: 29.04.2011 [World]\nDirector......: Kevin Munroe\nWriters.......: Thomas Dean Donnelly, Joshua Oppenheimer\nDuration......: 108 min.\nMore..........: http://www.imdb.com/title/tt1013860\nTrailer.......: http://www.imdb.com/video/imdb/vi4273511705\nTrailer.......:\n\nPilot :\nThe adventures of supernatural private eye, Dylan Dog, who seeks out the monsters of the Louisiana bayou in his signature red shirt, black jacket, and blue jeans.\n\nCats :\nBrandon Routh   \t ...  \tDylan Dog\nSam Huntington \t... \tMarcus\nPeter Stormare \t... \tGabriel\nTaye Diggs \t... \tVargas\nAnita Briem \t... \tElizabeth\nAndrew Sensenig \t... \tRosenberg\nBrian Steele \t... \tTatooed Zombie\nKurt Angle \t... \tWolfgang\nRandal Reeder \t... \tBob the Mechanic\nKimberly Whalen \t... \tKelly\nJames Hebert \t... \tLorca\nCourtney J. Clark \t... \tAlly\nKent Jude Bernard \t... \tSlake\nAda Michelle Loridans \t... \tZombie Mall Rat\nMarco St. John \t... \tBorelli \n\nData Technical :\n!!! SAMPLE !!!\nAudio.....: English\nSubtitles.: None\nFormat                           : AVI\nFormat/Info                      : Audio Video Interleave\nFile size                        : 1.37 GiB\nDuration                         : 1h 47mn\nOverall bit rate                 : 1 819 Kbps\nWriting application              : VirtualDubMod 1.5.10.2 (build 2540/release)\nWriting library                  : VirtualDubMod build 2540/release\nVideo\nID                               : 0\nFormat                           : MPEG-4 Visual\nFormat profile                   : Advanced Simple@L5\nFormat settings, BVOP            : Yes\nFormat settings, QPel            : No\nFormat settings, GMC             : No warppoints\nFormat settings, Matrix          : Default (MPEG)\nMuxing mode                      : Packed bitstream\nCodec ID                         : XVID\nCodec ID/Hint                    : XviD\nDuration                         : 1h 47mn\nBit rate                         : 1 425 Kbps\nWidth                            : 640 pixels\nHeight                           : 272 pixels\nDisplay aspect ratio             : 2.35:1\nFrame rate                       : 23.976 fps\nColor space                      : YUV\nChroma subsampling               : 4:2:0\nBit depth                        : 8 bits\nScan type                        : Progressive\nBits/(Pixel*Frame)               : 0.341\nStream size                      : 1.07 GiB (78%)\nWriting library                  : XviD 58\nAudio\nID                               : 1\nFormat                           : AC-3\nFormat/Info                      : Audio Coding 3\nMode extension                   : CM (complete main)\nCodec ID                         : 2000\nDuration                         : 1h 47mn\nBit rate mode                    : Constant\nBit rate                         : 384 Kbps\nChannel(s)                       : 6 channels\nChannel positions                : Front: L C R, Side: L R, LFE\nSampling rate                    : 48.0 KHz\nBit depth                        : 16 bits\nStream size                      : 296 MiB (21%)\nAlignment                        : Split accross interleaves\nInterleave, duration             : 42 ms (1.00 video frame)\nInterleave, preload duration     : 500 ms\n\nScreen : &lt;a href=&quot;\nhttp://img845.imageshack.us/img845/3933/dylandogdeadofnight2011.jpg&quot; rel=&quot;nofollow&quot; target=&quot;_NEW&quot;&gt;\nhttp://img845.imageshack.us/img845/3933/dylandogdeadofnight2011.jpg&lt;/a&gt; &lt;a href=&quot;\nhttp://img600.imageshack.us/img600/3933/dylandogdeadofnight2011.jpg&quot; rel=&quot;nofollow&quot; target=&quot;_NEW&quot;&gt;\nhttp://img600.imageshack.us/img600/3933/dylandogdeadofnight2011.jpg&lt;/a&gt; &lt;a href=&quot;\nhttp://img641.imageshack.us/img641/3933/dylandogdeadofnight2011.jpg&quot; rel=&quot;nofollow&quot; target=&quot;_NEW&quot;&gt;\nhttp://img641.imageshack.us/img641/3933/dylandogdeadofnight2011.jpg&lt;/a&gt; &lt;a href=&quot;\nhttp://img200.imageshack.us/img200/3933/dylandogdeadofnight2011.jpg&quot; rel=&quot;nofollow&quot; target=&quot;_NEW&quot;&gt;\nhttp://img200.imageshack.us/img200/3933/dylandogdeadofnight2011.jpg&lt;/a&gt; &lt;a href=&quot;\nhttp://img233.imageshack.us/img233/3933/dylandogdeadofnight2011.jpg&quot; rel=&quot;nofollow&quot; target=&quot;_NEW&quot;&gt;\nhttp://img233.imageshack.us/img233/3933/dylandogdeadofnight2011.jpg&lt;/a&gt;","torrent":{"xt":"urn:btih:26535685436ccad78a7277d757c51298d7a433f6","amp;dn":"Dylan+Dog+Dead+Of+Night+%2A2011%2A+%5BDVDRip.XviD-miguel%5D+%5BENG%5D","amp;tr":["udp%3A%2F%2Ftracker.openbittorrent.com%3A80","udp%3A%2F%2Fopen.demonii.com%3A1337","udp%3A%2F%2Ftracker.coppersurfer.tk%3A6969","udp%3A%2F%2Fexodus.desync.com%3A6969"],"infoHash":"26535685436ccad78a7277d757c51298d7a433f6","infoHashBuffer":{"type":"Buffer","data":[38,83,86,133,67,108,202,215,138,114,119,215,87,197,18,152,215,164,51,246]},"announce":[],"urlList":[]}}